<?xml version="1.0" encoding="UTF-8" standalone="no"?>
<!-- Generator: Adobe Illustrator 16.0.0, SVG Export Plug-In . SVG Version: 6.00 Build 0)  -->

<svg
   version="1.1"
   id="Layer_1"
   x="0px"
   y="0px"
   width="64.403587"
   height="64.297646"
   viewBox="0 0 64.403587 64.297646"
   enable-background="new 0 0 64 64"
   xml:space="preserve"
   xmlns="http://www.w3.org/2000/svg"
   xmlns:svg="http://www.w3.org/2000/svg"><defs
   id="defs79" />
   id=&quot;namedview77&quot;
   pagecolor=&quot;#ffffff&quot;
   bordercolor=&quot;#000000&quot;
   borderopacity=&quot;0.25&quot;
   inkscape:showpageshadow=&quot;2&quot;
   inkscape:pageopacity=&quot;0.0&quot;
   inkscape:pagecheckerboard=&quot;0&quot;
   inkscape:deskcolor=&quot;#d1d1d1&quot;
   showgrid=&quot;false&quot;
   inkscape:zoom=&quot;12.9375&quot;
   inkscape:cx=&quot;18.975845&quot;
   inkscape:cy=&quot;32&quot;
   inkscape:window-width=&quot;1910&quot;
   inkscape:window-height=&quot;1037&quot;
   inkscape:window-x=&quot;0&quot;
   inkscape:window-y=&quot;0&quot;
   inkscape:window-maximized=&quot;1&quot;
   inkscape:current-layer=&quot;Layer_1&quot; /&gt;
<g
   id="g74"
   transform="translate(0.00129768,-0.01153175)">
	<circle
   fill="none"
   stroke="#000000"
   stroke-width="2"
   stroke-miterlimit="10"
   cx="21"
   cy="21"
   r="20"
   id="circle68" />
	<line
   fill="none"
   stroke="#000000"
   stroke-width="2"
   stroke-miterlimit="10"
   x1="35"
   y1="35"
   x2="41"
   y2="41"
   id="line70" />
	
		<rect
   x="46.257"
   y="37.064999"
   transform="matrix(-0.7071,0.7071,-0.7071,-0.7071,121.9178,50.5)"
   fill="none"
   stroke="#000000"
   stroke-width="2"
   stroke-miterlimit="10"
   width="8.4849997"
   height="26.870001"
   id="rect72" />
</g>
<path
   style="fill:#f9f9f9;fill-opacity:1;stroke:#808000;stroke-width:0.0772947"
   d="m 46.820803,54.114455 -10.142495,-10.144543 1.487128,-1.488596 1.487127,-1.488595 -2.255191,-2.255192 -2.255191,-2.255191 -0.229405,0.187847 c -3.704927,3.033782 -6.79148,4.440058 -11.220657,5.112287 -0.420225,0.06378 -1.423058,0.09866 -2.782608,0.09679 -2.289535,-0.0032 -3.07527,-0.09018 -4.934591,-0.54654 -2.045338,-0.50202 -4.725931,-1.670291 -6.4090712,-2.79324 C 1.4422223,33.119596 -1.942091,23.253382 1.1983267,14.145828 2.2487335,11.099534 3.8119985,8.6200648 6.1816243,6.2419 7.4317071,4.9873127 7.9549881,4.5478529 9.278478,3.6411137 16.163039,-1.0755834 25.40784,-1.168377 32.387771,3.4091571 c 2.472725,1.6216462 4.490963,3.6352165 6.178143,6.1638523 0.802231,1.2023316 1.82875,3.3424616 2.321684,4.8403486 0.803372,2.441212 1.086124,4.405247 1.022393,7.10168 -0.0668,2.826443 -0.509906,4.963063 -1.551756,7.482506 -0.865227,2.092324 -1.848781,3.671912 -3.67522,5.902402 l -0.187847,0.229405 2.255191,2.255191 2.255192,2.255191 1.507852,-1.506365 1.507852,-1.506365 10.163839,10.163618 10.163838,10.163619 -3.651772,3.652379 c -2.008476,2.008809 -3.670243,3.65238 -3.692818,3.65238 -0.02257,0 -4.605167,-4.565045 -10.183539,-10.144544 z m 12.543034,5.197464 2.318095,-2.319061 -8.830597,-8.830597 -8.830596,-8.830596 -2.33808,2.33808 -2.338079,2.338079 8.811324,8.811578 c 4.846228,4.846368 8.828989,8.811578 8.850581,8.811578 0.02159,0 1.0824,-1.043577 2.357352,-2.319061 z M 24.184319,39.76609 c 1.13997,-0.204531 1.637001,-0.328883 2.71553,-0.679401 7.120692,-2.314199 12.263697,-8.66262 13.030255,-16.084282 0.131876,-1.276797 0.05295,-3.988195 -0.15016,-5.158867 -0.326249,-1.880359 -0.81931,-3.427162 -1.626148,-5.101449 C 35.397321,7.0220692 30.140648,3.1520654 23.753729,2.1406506 22.531112,1.9470404 19.536709,1.9449266 18.281491,2.1367875 10.516467,3.3236771 4.3786465,8.8877873 2.5210497,16.424081 c -0.4164101,1.68938 -0.5097992,2.534048 -0.5073238,4.588542 0.00239,1.985389 0.090991,2.817081 0.4669641,4.383452 1.6588783,6.911187 7.0067658,12.332661 13.855299,14.045946 0.7693,0.192454 1.331893,0.294255 2.757096,0.498896 0.127537,0.01831 1.118841,0.0235 2.202899,0.01152 1.602206,-0.0177 2.14266,-0.05257 2.888335,-0.186352 z"
   id="path1146" /></svg>
